# File created by Blade
# Date/Time:  Mon Nov 18 18:33:23 2013
# Frame Rate: 100.000 fps
#------------------------------------------------------
:FULLY-SPECIFIED
:DEGREES
282
root 52.741810 -3.843471 52.111232 -3.266317 0.072775 -125.549322
Spine 12.484841 -0.672820 -0.478018
Spine1 3.309990 1.526372 -1.260319
Spine2 0.897481 -0.842972 -1.470738
NeckDummy 0.000675 -0.132003 -0.026636 -1.471735 1.189225 -0.393797
Neck 15.840750 1.252548 27.508860
Head -0.289813 0.330718 0.207752 -34.326789 -3.948786 -0.599406
LeftShoulderDummy -0.057193 -0.119202 0.030482 -1.451155 1.069704 -0.175170
LeftShoulder 7.138338 -3.432387 13.647284
LeftArm 21.629859 50.546803 30.217467
LeftForeArm 89.626262
LeftForeArmRoll -36.676246
LeftHand -9.453002 5.356945 -4.739189
LeftHandThumb1 16.843011 12.804543
LeftHandIndex1 14.329550 43.647972
LeftHandPinky1 13.731279 48.221169
RightShoulderDummy -0.034829 -0.108200 0.056753 -1.489619 -1.189867 0.381540
RightShoulder 5.273776 4.914400 16.784592
RightArm -38.960410 69.426850 -2.086151
RightForeArm 111.796346
RightForeArmRoll 3.730131
RightHand -17.726248 -16.268498 11.421654
RightHandThumb1 -0.322590 13.464414
RightHandIndex1 13.548062 61.771983
RightHandPinky1 18.618250 69.746487
LeftUpLeg 3.974520 22.203666 -35.897782
LeftLeg 61.120604
LeftFoot 0.636340 -1.056910 -0.958475 -12.327595 9.988166 -15.153759
LeftToeBase -1.256669
RightUpLeg 10.825031 12.302182 -26.146835
RightLeg 67.020503
RightFoot -0.535974 0.457980 0.263987 -0.895235 7.369016 -33.987509
RightToeBase -1.011713
283
root 52.733237 -3.832976 52.114077 -3.253466 0.076683 -125.536556
Spine 12.435600 -0.644901 -0.499050
Spine1 3.304241 1.517686 -1.292850
Spine2 0.934967 -0.922476 -1.460963
NeckDummy 0.001047 -0.129934 -0.027757 -1.469007 1.189445 -0.420052
Neck 15.835172 1.382306 27.547275
Head -0.288392 0.331533 0.209888 -34.354225 -3.964895 -0.572456
LeftShoulderDummy -0.057170 -0.117395 0.029434 -1.448189 1.070086 -0.204196
LeftShoulder 7.093772 -3.340466 13.646159
LeftArm 21.588937 50.549301 30.197780
LeftForeArm 89.586144
LeftForeArmRoll -36.707183
LeftHand -9.390416 5.275738 -4.749281
LeftHandThumb1 16.987213 12.848557
LeftHandIndex1 14.292106 43.768983
LeftHandPinky1 13.741965 48.323057
RightShoulderDummy -0.035477 -0.105514 0.055498 -1.487006 -1.190107 0.407909
RightShoulder 5.317349 4.824072 16.755664
RightArm -38.930716 69.425173 -2.028647
RightForeArm 111.738025
RightForeArmRoll 3.608661
RightHand -17.751177 -16.342394 11.333835
RightHandThumb1 -0.585887 13.500986
RightHandIndex1 13.917211 61.193740
RightHandPinky1 18.719800 70.094784
LeftUpLeg 3.999046 22.183976 -35.865589
LeftLeg 61.046543
LeftFoot 0.619067 -1.049562 -0.938836 -12.042538 10.092090 -15.005835
LeftToeBase -1.778003
RightUpLeg 10.873035 12.337320 -26.103131
RightLeg 66.943639
RightFoot -0.535631 0.455637 0.264210 -0.876051 7.317625 -33.948582
RightToeBase -1.002636
284
root 52.719208 -3.819264 52.115889 -3.263780 0.087135 -125.477237
Spine 12.412857 -0.641633 -0.513005
Spine1 3.304721 1.523191 -1.332515
Spine2 0.954016 -0.952176 -1.473943
NeckDummy 0.001012 -0.130776 -0.028427 -1.473185 1.201009 -0.424122
Neck 15.864964 1.459684 27.561778
Head -0.289086 0.331539 0.208096 -34.363591 -3.949569 -0.607192
LeftShoulderDummy -0.056950 -0.118187 0.028847 -1.451886 1.081886 -0.209747
LeftShoulder 7.132563 -3.320757 13.659587
LeftArm 21.567504 50.519793 30.229580
LeftForeArm 89.572337
LeftForeArmRoll -36.745783
LeftHand -9.496555 5.367974 -4.719310
LeftHandThumb1 16.832334 12.648979
LeftHandIndex1 14.241123 43.506687
LeftHandPinky1 13.698387 48.184309
RightShoulderDummy -0.035763 -0.106281 0.055437 -1.490786 -1.202307 0.411399
RightShoulder 5.295730 4.796805 16.716872
RightArm -39.160468 69.410346 -2.283877
RightForeArm 111.731235
RightForeArmRoll 3.767798
RightHand -17.697182 -16.398801 11.606948
RightHandThumb1 -0.069186 13.356921
RightHandIndex1 13.341780 61.806282
RightHandPinky1 18.257874 70.282826
LeftUpLeg 3.998187 22.134232 -35.826321
LeftLeg 61.026149
LeftFoot 0.629067 -1.052978 -0.939961 -12.317439 10.075830 -15.100863
LeftToeBase -1.379212
RightUpLeg 10.925739 12.377554 -26.016788
RightLeg 66.831276
RightFoot -0.538198 0.456193 0.271916 -0.891330 7.318866 -33.889346
RightToeBase -0.940358
285
root 52.714960 -3.804344 52.110924 -3.261136 0.070453 -125.519435
Spine 12.411072 -0.686756 -0.468398
Spine1 3.299662 1.522825 -1.248539
Spine2 0.922688 -0.864652 -1.509867
NeckDummy 0.000862 -0.132005 -0.027408 -1.465162 1.219275 -0.399362
Neck 15.948234 1.470972 27.524401
Head -0.286000 0.333072 0.210355 -34.369337 -3.933258 -0.575478
LeftShoulderDummy -0.055734 -0.118816 0.029354 -1.443432 1.099871 -0.185817
LeftShoulder 7.154201 -3.341561 13.608808
LeftArm 21.525969 50.552257 30.216583
LeftForeArm 89.539863
LeftForeArmRoll -36.800465
LeftHand -9.466584 5.309284 -4.730808
LeftHandThumb1 16.891093 12.778929
LeftHandIndex1 14.292825 43.555897
LeftHandPinky1 13.762793 48.234330
RightShoulderDummy -0.035220 -0.107920 0.056209 -1.483260 -1.219198 0.385482
RightShoulder 5.235342 4.830816 16.777005
RightArm -39.377237 69.358182 -2.430498
RightForeArm 111.741331
RightForeArmRoll 3.919977
RightHand -17.770301 -16.273663 11.540291
RightHandThumb1 -0.072122 13.337757
RightHandIndex1 13.253528 61.561261
RightHandPinky1 18.197677 70.010382
LeftUpLeg 4.081059 22.193805 -35.754831
LeftLeg 60.943214
LeftFoot 0.627447 -1.053402 -0.940962 -12.271492 10.032085 -15.063637
LeftToeBase -1.424437
RightUpLeg 10.855641 12.285728 -25.975602
RightLeg 66.745793
RightFoot -0.534306 0.455920 0.264499 -0.836275 7.393139 -33.864712
RightToeBase -1.057988
